# xmcd CD database file
#
# Track frame offsets:
#	150
#	12139
#	22779
#	36806
#	46418
#	54745
#	68402
#	79121
#	91256
#	103800
#	117815
#	132149
#	145084
#	162366
#	175133
#	192237
#	203164
#	216761
#	228833
#	240815
#	253847
#	266944
#	278639
#	289263
#	307733
#	332130
#
# Disc length: 4642 seconds
#
# Revision: 20
# Processed by: cddbd v1.5.2PL0 Copyright (c) Steve Scherf et al.
# Submitted via: CDex 1.81
#
DISCID=6112201a
DTITLE=Johnny Cash - Greatest Hits
DYEAR=1995
DGENRE=Country
TTITLE0=I Walk The Line
TTITLE1=Big River
TTITLE2=Don't Take Your Guns To Town
TTITLE3=I Got Stripes
TTITLE4=Five Feet High And Rising
TTITLE5=Tennessee Flat-Top Box
TTITLE6=Bonanza
TTITLE7=Ring Of Fire
TTITLE8=Understand Your Man
TTITLE9=It Ain't Me Babe
TTITLE10=Orange Blossom Special
TTITLE11=The One On The Right Is On The Left
TTITLE12=(Ghost) Riders In The Sky
TTITLE13=Jackson (With June Carter)
TTITLE14=A Boy Named Sue (Live)
TTITLE15=Daddy Sang Bass
TTITLE16=If I Were A Carpenter (With June Carter)
TTITLE17=What Is Truth
TTITLE18=Flesh And Blood
TTITLE19=Wanted Man
TTITLE20=Man In Black
TTITLE21=A Thing Called Love
TTITLE22=Kate
TTITLE23=One Piece At A Time
TTITLE24=Highway Patrolman
TTITLE25=Johnny 99
EXTD=Year: 1995 YEAR: 1995
EXTT0=
EXTT1=
EXTT2=
EXTT3=
EXTT4=
EXTT5=
EXTT6=
EXTT7=
EXTT8=
EXTT9=
EXTT10=
EXTT11=
EXTT12=
EXTT13=
EXTT14=
EXTT15=
EXTT16=
EXTT17=
EXTT18=
EXTT19=
EXTT20=
EXTT21=
EXTT22=
EXTT23=
EXTT24=
EXTT25=
PLAYORDER=
